<svg xmlns="http://www.w3.org/2000/svg" viewBox="0 0 512 512">
  <defs>
    <linearGradient id="bg" x1="0%" y1="0%" x2="100%" y2="100%">
      <stop offset="0%" style="stop-color:#0a1628;stop-opacity:1" />
      <stop offset="100%" style="stop-color:#0f2847;stop-opacity:1" />
    </linearGradient>
    <linearGradient id="drop" x1="0%" y1="0%" x2="0%" y2="100%">
      <stop offset="0%" style="stop-color:#22d3ee;stop-opacity:1" />
      <stop offset="50%" style="stop-color:#06b6d4;stop-opacity:1" />
      <stop offset="100%" style="stop-color:#0284c7;stop-opacity:1" />
    </linearGradient>
    <filter id="glow">
      <feGaussianBlur stdDeviation="8" result="coloredBlur"/>
      <feMerge><feMergeNode in="coloredBlur"/><feMergeNode in="SourceGraphic"/></feMerge>
    </filter>
  </defs>
  <rect width="512" height="512" rx="96" fill="url(#bg)" />
  <g stroke="#1e3a5f" stroke-width="0.5" opacity="0.4">
    <line x1="64" y1="128" x2="448" y2="128"/>
    <line x1="64" y1="256" x2="448" y2="256"/>
    <line x1="64" y1="384" x2="448" y2="384"/>
    <line x1="128" y1="64" x2="128" y2="448"/>
    <line x1="256" y1="64" x2="256" y2="448"/>
    <line x1="384" y1="64" x2="384" y2="448"/>
  </g>
  <rect x="40" y="300" width="432" height="24" rx="4" fill="#1a2744" opacity="0.6"/>
  <rect x="40" y="332" width="432" height="24" rx="4" fill="#162240" opacity="0.5"/>
  <rect x="40" y="364" width="432" height="24" rx="4" fill="#121d3a" opacity="0.4"/>
  <rect x="60" y="306" width="120" height="12" rx="6" fill="#06b6d4" opacity="0.25"/>
  <rect x="200" y="338" width="140" height="12" rx="6" fill="#3b82f6" opacity="0.2"/>
  <rect x="360" y="370" width="100" height="12" rx="6" fill="#06b6d4" opacity="0.15"/>
  <g filter="url(#glow)" transform="translate(256, 230)">
    <path d="M0,-80 C-10,-65 -45,-20 -45,15 C-45,52 -25,75 0,75 C25,75 45,52 45,15 C45,-20 10,-65 0,-80 Z" fill="url(#drop)" opacity="0.9"/>
    <ellipse cx="-12" cy="5" rx="8" ry="16" fill="white" opacity="0.15" transform="rotate(-15, -12, 5)"/>
    <ellipse cx="0" cy="85" rx="60" ry="10" fill="none" stroke="#06b6d4" stroke-width="1.5" opacity="0.4"/>
    <ellipse cx="0" cy="95" rx="80" ry="12" fill="none" stroke="#06b6d4" stroke-width="1" opacity="0.25"/>
  </g>
  <text x="256" y="252" text-anchor="middle" font-family="sans-serif" font-size="42" font-weight="700" fill="white" opacity="0.95">冀</text>
  <text x="256" y="450" text-anchor="middle" font-family="sans-serif" font-size="22" font-weight="500" fill="#06b6d4" opacity="0.8" letter-spacing="4">地下水数据库</text>
</svg>